<svg width="143.599" height="48" viewBox="0 0 143.599 48" xmlns="http://www.w3.org/2000/svg">
    <g fill="#FFF" fill-rule="evenodd">
        <path d="M143.592 10.134c0-.37 0-.738-.006-1.104-.028-.806-.076-1.61-.223-2.402a8.004 8.004 0 0 0-.743-2.284A7.719 7.719 0 0 0 139.26.983a8.2 8.2 0 0 0-2.289-.754c-.79-.142-1.596-.192-2.4-.213-.368-.005-.74-.013-1.106-.016H10.126c-.369 0-.733.01-1.104.016-.795.02-1.607.07-2.402.213-.806.14-1.552.38-2.282.754a7.7 7.7 0 0 0-3.355 3.36 7.939 7.939 0 0 0-.751 2.285C.087 7.423.04 8.224.018 9.03c-.013.369-.013.738-.018 1.104v27.738c.005.374.005.735.018 1.109.022.803.072 1.61.214 2.402.14.8.376 1.554.75 2.284a7.52 7.52 0 0 0 1.412 1.939 7.573 7.573 0 0 0 1.944 1.414c.73.374 1.478.611 2.282.753.795.145 1.607.193 2.402.214.371.008.738.013 1.104.013h123.34c.366 0 .74-.005 1.106-.013.804-.024 1.61-.071 2.4-.214a8.06 8.06 0 0 0 2.29-.753 7.57 7.57 0 0 0 1.94-1.414 7.678 7.678 0 0 0 1.418-1.94c.369-.729.608-1.482.743-2.283.147-.796.192-1.599.223-2.402.006-.374.006-.735.006-1.11.007-.434.007-.869.007-1.311V11.446c0-.44 0-.875-.007-1.312zm-1.038 26.426c0 .434 0 .861-.008 1.29 0 .39 0 .749-.005 1.115-.024.708-.069 1.485-.203 2.223a6.938 6.938 0 0 1-.648 2.005 6.475 6.475 0 0 1-1.22 1.662 6.404 6.404 0 0 1-1.678 1.225 6.962 6.962 0 0 1-2.002.66c-.769.14-1.564.18-2.244.198-.35.008-.72.014-1.075.014H10.128c-.366 0-.721-.006-1.082-.014-.672-.018-1.467-.058-2.245-.197a7.006 7.006 0 0 1-1.988-.656 6.374 6.374 0 0 1-1.676-1.222 6.282 6.282 0 0 1-1.225-1.676 6.919 6.919 0 0 1-.65-1.988c-.148-.807-.185-1.628-.203-2.25-.005-.253-.016-1.098-.016-1.098V10.134s.01-.83.016-1.072c.016-.63.055-1.45.2-2.247a6.73 6.73 0 0 1 .653-1.992 6.41 6.41 0 0 1 1.22-1.678 6.532 6.532 0 0 1 1.683-1.227A6.995 6.995 0 0 1 6.8 1.264c.806-.147 1.625-.181 2.25-.197l1.08-.016H133.46l1.096.016c.613.016 1.432.05 2.23.195a7.193 7.193 0 0 1 2.005.656 6.61 6.61 0 0 1 1.673 1.222 6.63 6.63 0 0 1 1.867 3.664c.138.759.182 1.536.209 2.265.005.34.005.706.005 1.07.008.448.008.88.008 1.312v25.117-.008z" fill-rule="nonzero" opacity=".2"/>
        <path d="M32.571 23.868c-.031-3.432 2.81-5.1 2.94-5.179-1.61-2.347-4.104-2.668-4.979-2.694-2.096-.222-4.127 1.256-5.194 1.256-1.067 0-2.735-1.233-4.505-1.198-2.278.037-4.412 1.356-5.584 3.406-2.413 4.177-.611 10.318 1.699 13.697 1.156 1.652 2.508 3.504 4.278 3.435 1.73-.07 2.376-1.103 4.467-1.103 2.092 0 2.677 1.103 4.484 1.061 1.857-.029 3.024-1.662 4.143-3.332 1.336-1.894 1.873-3.762 1.894-3.86-.044-.015-3.606-1.377-3.643-5.491M29.162 13.77c.93-1.164 1.568-2.747 1.391-4.354-1.346.06-3.034.933-4.001 2.07-.862 1.004-1.628 2.65-1.428 4.194 1.512.114 3.066-.764 4.038-1.91z" fill-rule="nonzero"/>
        <g opacity=".6" fill-rule="nonzero">
            <path d="M44.719 17.333V10.38h2.277c.722 0 1.349.145 1.88.434.533.29.945.695 1.237 1.218.293.523.439 1.13.439 1.82 0 .684-.146 1.29-.439 1.815a3.089 3.089 0 0 1-1.236 1.228c-.532.292-1.16.438-1.881.438h-2.277zm1.101-.98h1.195c.491 0 .919-.102 1.283-.308.364-.205.646-.494.845-.868.199-.373.298-.815.298-1.325s-.1-.95-.303-1.32a2.169 2.169 0 0 0-.845-.864c-.36-.205-.787-.308-1.278-.308H45.82v4.993zM53.963 17.445a2.625 2.625 0 0 1-2.286-1.288 2.6 2.6 0 0 1-.355-1.353c0-.51.118-.963.355-1.358.236-.395.553-.706.952-.933.398-.227.843-.341 1.334-.341.498 0 .945.114 1.34.34.395.228.709.539.942.934.234.395.35.848.35 1.358a2.573 2.573 0 0 1-1.307 2.3c-.398.228-.84.341-1.325.341zm0-.98c.299 0 .563-.071.794-.214.23-.143.412-.341.546-.593.133-.252.2-.537.2-.854 0-.317-.067-.6-.2-.85a1.471 1.471 0 0 0-1.34-.803c-.292.001-.555.073-.788.216a1.52 1.52 0 0 0-.551.588c-.134.249-.2.532-.2.849 0 .317.066.602.2.854s.317.45.55.593c.234.143.497.214.79.214zM58.845 17.333l-1.736-5.049h1.12l1.325 4.023h-.392l1.353-4.023h.962l1.344 4.023h-.392l1.334-4.023h1.12l-1.745 5.05h-.952l-1.363-4.117h.346l-1.363 4.116zM65.597 17.333v-5.049h1.008v.99l-.121-.131c.124-.318.324-.559.597-.724a1.81 1.81 0 0 1 .952-.247c.374 0 .703.08.99.243.286.161.51.385.672.672.161.286.242.616.242.989v3.257h-1.045v-2.977c0-.255-.047-.471-.14-.649a.99.99 0 0 0-.397-.41 1.167 1.167 0 0 0-.583-.145c-.218 0-.412.048-.583.145a.984.984 0 0 0-.397.415c-.093.18-.14.395-.14.644v2.977h-1.055zM71.067 17.333v-7.065h1.054v7.065zM75.785 17.445a2.625 2.625 0 0 1-2.287-1.288 2.6 2.6 0 0 1-.355-1.353c0-.51.119-.963.355-1.358.236-.395.554-.706.952-.933.398-.227.843-.341 1.335-.341.497 0 .944.114 1.339.34.395.228.71.539.943.934.233.395.35.848.35 1.358 0 .51-.119.964-.355 1.363-.236.398-.554.71-.952.938-.398.227-.84.34-1.325.34zm0-.98c.298 0 .563-.071.793-.214.23-.143.412-.341.546-.593.134-.252.2-.537.2-.854 0-.317-.066-.6-.2-.85a1.471 1.471 0 0 0-1.34-.803c-.292.001-.555.073-.788.216a1.52 1.52 0 0 0-.55.588c-.134.249-.201.532-.201.849 0 .317.067.602.2.854a1.478 1.478 0 0 0 1.34.807zM80.955 17.445c-.342 0-.642-.06-.9-.182a1.439 1.439 0 0 1-.602-.504 1.34 1.34 0 0 1-.215-.76c0-.274.06-.52.182-.738a1.48 1.48 0 0 1 .565-.55c.255-.15.575-.255.961-.318l1.755-.289v.83l-1.55.271c-.28.05-.485.139-.616.266a.655.655 0 0 0-.196.49c0 .193.073.35.22.472a.855.855 0 0 0 .564.182c.287 0 .537-.063.752-.187.214-.124.38-.29.499-.5.118-.208.177-.44.177-.695v-1.297a.771.771 0 0 0-.275-.611c-.184-.159-.428-.238-.733-.238-.28 0-.524.073-.732.219a1.316 1.316 0 0 0-.462.565l-.878-.439a1.66 1.66 0 0 1 .458-.658c.211-.19.459-.338.742-.443.283-.106.583-.159.9-.159.399 0 .752.075 1.06.224.308.15.547.356.718.62.171.265.257.572.257.92v3.397h-1.008v-.914l.215.028c-.119.205-.27.382-.453.532-.184.149-.392.264-.625.345-.234.08-.493.121-.78.121zM87.167 17.445a2.45 2.45 0 0 1-1.302-.35 2.522 2.522 0 0 1-.906-.947 2.724 2.724 0 0 1-.331-1.344c0-.498.112-.946.336-1.344.224-.398.526-.712.905-.943.38-.23.81-.345 1.288-.345.405 0 .763.08 1.074.243.31.161.557.385.737.672l-.159.242v-3.061h1.046v7.065h-.999v-1.026l.121.196a1.73 1.73 0 0 1-.746.7 2.346 2.346 0 0 1-1.064.242zm.102-.98a1.478 1.478 0 0 0 1.34-.807c.133-.252.2-.537.2-.854 0-.317-.067-.6-.2-.85a1.52 1.52 0 0 0-.551-.587 1.478 1.478 0 0 0-.789-.215c-.292 0-.557.072-.793.215-.236.143-.42.339-.55.588a1.8 1.8 0 0 0-.197.849c0 .317.066.602.196.854.131.252.313.45.546.593.234.143.5.214.798.214zM93.29 17.333v-4.097h-.934v-.952h.933v-.261c0-.38.078-.699.234-.957.155-.258.371-.456.648-.593.277-.137.596-.205.957-.205a2.215 2.215 0 0 1 .448.047v.914a.875.875 0 0 0-.168-.023 3.14 3.14 0 0 0-.15-.005c-.28 0-.503.064-.671.192-.168.127-.252.337-.252.63v.261h1.157v.952h-1.157v4.097h-1.046zM96.467 17.333v-5.049h1.008v1.017l-.093-.149c.112-.33.292-.568.541-.714.25-.146.548-.22.896-.22h.308v.962h-.438c-.349 0-.63.107-.845.322-.215.215-.322.521-.322.92v2.911h-1.055zM102.282 17.445a2.625 2.625 0 0 1-2.287-1.288 2.6 2.6 0 0 1-.354-1.353c0-.51.118-.963.354-1.358.237-.395.554-.706.952-.933.399-.227.843-.341 1.335-.341.498 0 .944.114 1.34.34.394.228.709.539.942.934.233.395.35.848.35 1.358 0 .51-.118.964-.355 1.363-.236.398-.553.71-.952.938-.398.227-.84.34-1.325.34zm0-.98c.299 0 .563-.071.793-.214.23-.143.413-.341.546-.593.134-.252.201-.537.201-.854 0-.317-.067-.6-.2-.85a1.471 1.471 0 0 0-1.34-.803c-.292.001-.555.073-.789.216a1.52 1.52 0 0 0-.55.588c-.134.249-.201.532-.201.849 0 .317.067.602.2.854a1.478 1.478 0 0 0 1.34.807zM105.94 17.333v-5.049h1.009v1.092l-.131-.168c.106-.342.299-.6.579-.775.28-.174.6-.261.961-.261.404 0 .764.107 1.078.322.314.215.524.5.63.854l-.299.028c.15-.404.378-.706.686-.905.308-.2.661-.299 1.06-.299.348 0 .664.08.947.243.283.161.509.385.677.672a1.9 1.9 0 0 1 .252.98v3.266h-1.055v-2.977c0-.255-.045-.471-.135-.649a.997.997 0 0 0-.374-.41 1.048 1.048 0 0 0-.555-.145c-.212 0-.398.048-.56.145a1.01 1.01 0 0 0-.383.415c-.093.18-.14.395-.14.644v2.977h-1.045v-2.977c0-.255-.045-.471-.135-.649a.997.997 0 0 0-.374-.41 1.066 1.066 0 0 0-.564-.145c-.212 0-.399.048-.56.145a.98.98 0 0 0-.378.415c-.09.18-.136.395-.136.644v2.977h-1.054z"/>
        </g>
        <path d="M86.967 34.628c-1.746 0-3.02-.862-3.168-2.177v-.002h-2.032c.13 2.4 2.114 3.915 5.054 3.915 3.142 0 5.118-1.553 5.118-4.032 0-1.943-1.13-3.035-3.85-3.677l-1.46-.356c-1.708-.421-2.406-.974-2.406-1.912 0-1.176 1.092-1.984 2.69-1.984 1.598 0 2.69.799 2.811 2.123h2.001c-.065-2.29-1.959-3.86-4.787-3.86s-4.822 1.57-4.822 3.86c0 1.848 1.13 2.982 3.566 3.573l1.716.415c1.717.421 2.446 1.037 2.446 2.066 0 1.186-1.132 2.048-2.877 2.048zM47.355 32.56h5.052l1.211 3.583h2.177L51.01 22.889h-2.223L44 36.144h2.142l1.213-3.583zm4.53-1.654H47.88l1.975-5.813h.057l1.972 5.813zM62.1 36.245c2.425 0 4.032-1.929 4.032-4.932h-.002c0-2.997-1.614-4.935-4.07-4.935-1.35 0-2.526.67-3.076 1.708h-.035V26.48h-1.92V39.34h1.985v-4.787h.045c.57 1.075 1.663 1.692 3.041 1.692zm-.562-8.177c1.541 0 2.554 1.286 2.554 3.245 0 1.973-1.04 3.25-2.554 3.25-1.514 0-2.536-1.32-2.536-3.25 0-1.931.994-3.245 2.536-3.245zm15.232 3.245c0 3.003-1.608 4.932-4.033 4.932-1.378 0-2.472-.617-3.041-1.692h-.045v4.787h-1.984V26.479h1.919v1.607h.035c.55-1.038 1.727-1.708 3.076-1.708 2.456 0 4.07 1.938 4.07 4.935h.003zm-2.041 0c0-1.96-1.012-3.245-2.554-3.245-1.542 0-2.535 1.314-2.535 3.245 0 1.93 1.019 3.25 2.535 3.25 1.516 0 2.554-1.277 2.554-3.25zm21.493-7.119v2.287h1.84v1.57h-1.84v5.328c0 .83.368 1.216 1.176 1.216.2 0 .523-.03.652-.047v1.563c-.22.054-.661.092-1.102.092-1.958 0-2.72-.736-2.72-2.608v-5.542h-1.404v-1.57h1.404v-2.289h1.994zm7.486 2.165c-2.793 0-4.585 1.912-4.585 4.954 0 3.048 1.773 4.95 4.585 4.95 2.812 0 4.585-1.909 4.585-4.95 0-3.042-1.792-4.954-4.585-4.954zm-.003 1.636c1.608 0 2.564 1.232 2.564 3.318 0 2.092-.956 3.315-2.564 3.315-1.607 0-2.563-1.237-2.563-3.315 0-2.079.956-3.318 2.563-3.318zm6.222-1.514h1.891v1.645h.044c.305-1.092 1.186-1.746 2.327-1.746.284 0 .523.038.68.073v1.858c-.155-.063-.504-.122-.89-.122-1.278 0-2.067.865-2.067 2.224v5.73h-1.985v-9.662zm9.927 9.785c2.184 0 3.892-1.207 4.162-2.96l-.003.003h-1.884c-.265.836-1.13 1.359-2.23 1.359-1.563 0-2.601-1.083-2.601-2.737v-.122h6.825v-.68c0-2.93-1.638-4.767-4.356-4.767s-4.47 1.97-4.47 4.995c0 3.025 1.746 4.909 4.557 4.909zm2.287-5.844h-4.831c.1-1.462 1.08-2.455 2.46-2.455s2.327.977 2.371 2.455z"/>
    </g>
</svg>
