<svg width="22" height="22" viewBox="0 0 22 22" xmlns="http://www.w3.org/2000/svg">
    <path d="M19.25 1.833h-1.833V.917a.917.917 0 0 0-1.834 0v.916H6.417V.917a.917.917 0 0 0-1.834 0v.916H2.75A2.753 2.753 0 0 0 0 4.583V19.25A2.753 2.753 0 0 0 2.75 22h16.5A2.753 2.753 0 0 0 22 19.25V4.583a2.753 2.753 0 0 0-2.75-2.75zm.917 17.417a.918.918 0 0 1-.917.917H2.75a.918.918 0 0 1-.917-.917v-9.167h18.334v9.167zm0-11H1.833V4.583c0-.506.412-.916.917-.916h1.833V5.5a.917.917 0 0 0 1.834 0V3.667h9.166V5.5a.917.917 0 0 0 1.834 0V3.667h1.833c.506 0 .917.411.917.916V8.25zm-5.042 10.083c1.77 0 3.208-1.439 3.208-3.208 0-1.77-1.439-3.208-3.208-3.208a3.212 3.212 0 0 0-3.208 3.208c0 1.77 1.439 3.208 3.208 3.208zm0-4.583c.758 0 1.375.617 1.375 1.375s-.617 1.375-1.375 1.375a1.377 1.377 0 0 1-1.375-1.375c0-.758.617-1.375 1.375-1.375z" fill="#3F4254" fill-rule="nonzero" opacity=".7"/>
</svg>
