<svg width="27.533" height="41.967" viewBox="0 0 27.533 41.967" xmlns="http://www.w3.org/2000/svg">
    <path d="M27.533 0v28.044c0 7.702-6.147 13.923-13.766 13.923C6.18 41.967 0 35.713 0 28.044V13.989h8.829v-.099c0-4.114-3.335-7.472-7.456-7.472H0V.132h1.373c7.587 0 13.734 6.122 13.734 13.725v6.452H6.311v7.67c0 4.146 3.368 7.537 7.488 7.537 4.12 0 7.489-3.358 7.489-7.538V6.32h-5.723V0h11.968zM14.1 23.167a3.952 3.952 0 0 1 3.967 3.967A3.973 3.973 0 0 1 14.1 31.1a3.973 3.973 0 0 1-3.966-3.966c-.033-2.193 1.755-3.967 3.966-3.967z" fill="#FFF" fill-rule="nonzero"/>
</svg>
