<svg width="22" height="17" viewBox="0 0 22 17" xmlns="http://www.w3.org/2000/svg">
    <path d="M7.333 12.829a.92.92 0 0 0 .917-.921.916.916 0 1 0-1.833 0v.009c0 .506.41.912.916.912zM19.25 0H2.75A2.753 2.753 0 0 0 0 2.75v11a2.753 2.753 0 0 0 2.75 2.75h16.5A2.753 2.753 0 0 0 22 13.75v-11A2.753 2.753 0 0 0 19.25 0zm.917 13.75c0 .505-.411.917-.917.917H2.75a.918.918 0 0 1-.917-.917V7.333h18.334v6.417zm0-8.25H1.833V2.75c0-.505.411-.917.917-.917h16.5c.506 0 .917.412.917.917V5.5zM4.583 12.829a.92.92 0 0 0 .917-.921.916.916 0 1 0-1.833 0v.009c0 .506.41.912.916.912z" fill="#3F4254" fill-rule="nonzero" opacity=".7"/>
</svg>
