<svg width="77" height="24" viewBox="0 0 77 24" xmlns="http://www.w3.org/2000/svg">
    <g fill="#FFF" fill-rule="nonzero">
        <path d="M15.733.019v16.025c0 4.401-3.513 7.956-7.866 7.956C3.532 24 0 20.426 0 16.044V8.013h5.045v-.057a4.268 4.268 0 0 0-4.26-4.27H0V.095h.785a7.837 7.837 0 0 1 7.848 7.843v3.687H3.606v4.382c0 2.37 1.925 4.307 4.28 4.307 2.354 0 4.278-1.918 4.278-4.307V3.63h-3.27V.02h6.84zM8.057 13.257a2.258 2.258 0 0 1 2.267 2.267 2.27 2.27 0 0 1-2.267 2.266 2.27 2.27 0 0 1-2.266-2.266c-.019-1.253 1.003-2.267 2.266-2.267zM24.41 18.098a4.58 4.58 0 0 0 1.574-.253 3.504 3.504 0 0 0 1.183-.7c.327-.3.574-.663.743-1.093a3.87 3.87 0 0 0 .253-1.426V6.541H23.31v1.988h2.371v5.983c0 .489-.128.848-.383 1.076a1.337 1.337 0 0 1-.922.342c-.762 0-1.235-.494-1.42-1.483l-2.317.456c.076.478.212.913.408 1.304.196.391.449.728.759 1.01.31.283.68.5 1.11.653.43.152.927.228 1.492.228zm8.158.016c.653 0 1.203-.144 1.649-.432.446-.288.734-.709.864-1.263h.098c.076.457.259.82.547 1.092.288.272.65.408 1.085.408h1.338v-1.875h-.8v-3.75c0-1.02-.304-1.798-.913-2.33-.61-.533-1.523-.799-2.742-.799-.903 0-1.618.144-2.145.432a3.743 3.743 0 0 0-1.314 1.198l1.436 1.272c.185-.261.419-.495.702-.701.282-.207.663-.31 1.142-.31.511 0 .876.122 1.093.367.218.244.327.573.327.986v.538H33.58c-1.131 0-2.026.22-2.684.66-.658.44-.987 1.111-.987 2.013 0 .75.228 1.353.685 1.81.457.456 1.115.684 1.974.684zm.898-1.679c-.36 0-.636-.073-.832-.22-.196-.146-.294-.377-.294-.692v-.245c0-.641.473-.962 1.42-.962h1.175v1.011c0 .391-.145.674-.433.848-.288.173-.634.26-1.036.26zm8.714 1.484v-5.543a1.171 1.171 0 0 1 .448-.945c.136-.109.289-.187.457-.236.169-.05.34-.074.514-.074.784 0 1.175.544 1.175 1.63v5.168h2.415v-5.543c0-.423.147-.739.44-.945.295-.206.621-.31.98-.31.783 0 1.175.544 1.175 1.63v5.168h2.415v-5.363c0-1.087-.22-1.924-.66-2.51-.441-.587-1.075-.88-1.902-.88-.326 0-.63.045-.914.138a3.126 3.126 0 0 0-.767.366 2.313 2.313 0 0 0-.93 1.223h-.049c-.185-.565-.484-.994-.897-1.288-.414-.293-.914-.44-1.502-.44-.641 0-1.147.16-1.517.481-.37.32-.631.71-.783 1.166h-.098V9.36h-2.415v8.558h2.415zm15.747.195c.783 0 1.482-.125 2.096-.374.615-.25 1.113-.598 1.494-1.044l-1.208-1.5a4.81 4.81 0 0 1-.881.726c-.316.201-.724.302-1.224.302-.653 0-1.131-.166-1.436-.498-.305-.331-.457-.78-.457-1.345v-.13h5.5v-.717c0-.576-.074-1.128-.221-1.655a3.873 3.873 0 0 0-.702-1.393 3.434 3.434 0 0 0-1.24-.962c-.506-.24-1.112-.359-1.82-.359-.641 0-1.212.106-1.713.318-.5.212-.922.513-1.264.905a3.898 3.898 0 0 0-.775 1.41 6.048 6.048 0 0 0-.262 1.834c0 .684.09 1.304.27 1.858.18.554.446 1.024.8 1.41.353.386.785.685 1.297.897.51.211 1.093.317 1.746.317zm1.387-5.281H56.31v-.13c0-.533.139-.96.416-1.28.278-.32.661-.481 1.15-.481.49 0 .852.16 1.086.48.234.321.35.743.35 1.264v.147zm7.783 5.281c.784 0 1.483-.125 2.097-.374.615-.25 1.112-.598 1.493-1.044l-1.207-1.5a4.81 4.81 0 0 1-.881.726c-.316.201-.724.302-1.224.302-.653 0-1.132-.166-1.436-.498-.305-.331-.457-.78-.457-1.345v-.13h5.499v-.717c0-.576-.073-1.128-.22-1.655a3.873 3.873 0 0 0-.702-1.393 3.434 3.434 0 0 0-1.24-.962c-.506-.24-1.113-.359-1.82-.359-.641 0-1.213.106-1.713.318-.5.212-.922.513-1.265.905a3.898 3.898 0 0 0-.775 1.41 6.048 6.048 0 0 0-.26 1.834c0 .684.089 1.304.268 1.858.18.554.446 1.024.8 1.41.354.386.786.685 1.297.897.512.211 1.094.317 1.746.317zm1.387-5.281h-3.002v-.13c0-.533.139-.96.416-1.28.277-.32.66-.481 1.15-.481.49 0 .852.16 1.085.48.234.321.351.743.351 1.264v.147zm7.702 5.086v-1.875H75.11V5.856h-2.415v9.715c0 .761.193 1.343.58 1.745.386.402.992.603 1.82.603h1.092z"/>
    </g>
</svg>
