<svg width="16.5" height="22" viewBox="0 0 16.5 22" xmlns="http://www.w3.org/2000/svg">
    <path d="M8.25 0C2.835 0 0 4.265 0 8.48c0 3.996 6.774 12.26 7.546 13.19a.916.916 0 0 0 1.41 0c.772-.93 7.544-9.194 7.544-13.19C16.5 4.264 13.667 0 8.25 0zm0 19.628C5.969 16.75 1.834 11.016 1.834 8.479c0-3.2 2.008-6.646 6.418-6.646 4.408 0 6.416 3.445 6.416 6.646 0 2.537-4.135 8.272-6.416 11.149zm0-15.045A3.67 3.67 0 0 0 4.583 8.25a3.67 3.67 0 0 0 3.667 3.667 3.67 3.67 0 0 0 3.667-3.667A3.67 3.67 0 0 0 8.25 4.583zm0 5.5A1.835 1.835 0 0 1 6.417 8.25c0-1.011.822-1.833 1.833-1.833 1.011 0 1.833.822 1.833 1.833a1.835 1.835 0 0 1-1.833 1.833z" fill="#3F4254" fill-rule="nonzero" opacity=".7"/>
</svg>
