<svg width="102" height="32" viewBox="0 0 102 32" xmlns="http://www.w3.org/2000/svg">
    <g fill-rule="nonzero" fill="none">
        <path d="M20.978.025v21.367C20.978 27.26 16.294 32 10.488 32 4.709 32 0 27.235 0 21.392V10.683h6.727v-.075c0-3.135-2.541-5.693-5.68-5.693H0V.125h1.046c5.78 0 10.464 4.665 10.464 10.458v4.915H4.808v5.844c0 3.16 2.567 5.743 5.706 5.743 3.139 0 5.705-2.558 5.705-5.743V4.84h-4.36V.025h9.119zM10.743 17.676a3.011 3.011 0 0 1 3.022 3.022 3.027 3.027 0 0 1-3.022 3.023 3.027 3.027 0 0 1-3.022-3.023c-.025-1.67 1.338-3.022 3.022-3.022z" fill="#6B13E3"/>
        <path d="M32.546 24.13c.783 0 1.483-.111 2.1-.336a4.672 4.672 0 0 0 1.577-.935c.435-.398.765-.884.99-1.456a5.16 5.16 0 0 0 .337-1.902V8.721h-6.47v2.652h3.163v7.976c0 .652-.17 1.13-.511 1.435-.341.304-.75.456-1.23.456-1.015 0-1.646-.66-1.892-1.978l-3.09.609c.102.637.283 1.217.544 1.739.261.521.598.97 1.012 1.347.413.377.906.667 1.48.87.572.202 1.236.304 1.99.304zm10.879.023c.87 0 1.602-.192 2.197-.576.595-.384.98-.946 1.153-1.685h.13c.102.609.345 1.094.73 1.456.384.363.866.544 1.446.544h1.785v-2.5h-1.067v-4.999c0-1.362-.406-2.398-1.218-3.108-.812-.71-2.03-1.065-3.655-1.065-1.204 0-2.158.192-2.861.576a4.991 4.991 0 0 0-1.752 1.598l1.915 1.695c.247-.348.558-.66.936-.935.377-.275.884-.413 1.523-.413.681 0 1.167.163 1.457.49.29.325.435.764.435 1.314v.718h-1.805c-1.509 0-2.702.293-3.58.88-.877.587-1.316 1.482-1.316 2.684 0 1 .305 1.804.914 2.413.61.608 1.487.913 2.633.913zm1.196-2.24c-.478 0-.848-.097-1.11-.293-.26-.195-.391-.503-.391-.923v-.326c0-.855.631-1.283 1.893-1.283h1.566v1.348c0 .522-.192.898-.576 1.13-.385.232-.845.348-1.382.348zm11.619 1.979v-7.39a1.561 1.561 0 0 1 .598-1.26c.181-.146.384-.25.61-.316.224-.065.452-.098.685-.098 1.044 0 1.566.725 1.566 2.174v6.89h3.22v-7.39c0-.565.196-.985.588-1.26a2.218 2.218 0 0 1 1.305-.414c1.044 0 1.567.725 1.567 2.174v6.89h3.22V16.74c0-1.449-.294-2.565-.882-3.347-.587-.783-1.432-1.174-2.534-1.174-.435 0-.842.062-1.219.185a4.168 4.168 0 0 0-1.022.489 3.085 3.085 0 0 0-1.24 1.63h-.066c-.246-.753-.645-1.326-1.196-1.717-.552-.391-1.219-.587-2.002-.587-.856 0-1.53.214-2.023.641a3.483 3.483 0 0 0-1.045 1.554h-.13v-1.934h-3.22v11.41h3.22zm20.995.26c1.045 0 1.977-.166 2.796-.5.82-.333 1.483-.796 1.991-1.39l-1.61-2c-.363.377-.754.7-1.175.967-.42.268-.964.402-1.632.402-.87 0-1.508-.22-1.914-.663-.406-.442-.61-1.04-.61-1.793v-.174h7.333v-.956c0-.768-.098-1.503-.294-2.206a5.164 5.164 0 0 0-.936-1.858 4.579 4.579 0 0 0-1.653-1.283c-.675-.318-1.483-.478-2.426-.478-.856 0-1.617.141-2.285.424a4.581 4.581 0 0 0-1.686 1.206 5.197 5.197 0 0 0-1.033 1.88c-.232.732-.348 1.547-.348 2.446 0 .912.12 1.738.359 2.477.239.74.594 1.366 1.066 1.88a4.806 4.806 0 0 0 1.73 1.196c.681.282 1.457.424 2.327.424zm1.85-7.041H75.08v-.174c0-.71.185-1.28.555-1.707.37-.427.881-.64 1.534-.64s1.135.213 1.447.64c.312.428.468.99.468 1.685v.196zm10.378 7.042c1.044 0 1.976-.167 2.796-.5.82-.334 1.483-.797 1.99-1.391l-1.61-2c-.362.377-.754.7-1.174.967-.42.268-.965.402-1.632.402-.87 0-1.509-.22-1.915-.663-.406-.442-.609-1.04-.609-1.793v-.174h7.332v-.956c0-.768-.098-1.503-.293-2.206a5.164 5.164 0 0 0-.936-1.858 4.579 4.579 0 0 0-1.654-1.283c-.674-.318-1.483-.478-2.425-.478-.856 0-1.618.141-2.285.424a4.581 4.581 0 0 0-1.686 1.206 5.197 5.197 0 0 0-1.034 1.88c-.232.732-.348 1.547-.348 2.446 0 .912.12 1.738.36 2.477.239.74.594 1.366 1.065 1.88a4.806 4.806 0 0 0 1.73 1.196c.682.282 1.458.424 2.328.424zm1.85-7.042h-4.004v-.174c0-.71.185-1.28.555-1.707.37-.427.881-.64 1.534-.64s1.135.213 1.447.64c.312.428.467.99.467 1.685v.196zm10.269 6.78v-2.499h-1.436V7.808h-3.22v12.954c0 1.014.257 1.79.772 2.326s1.324.804 2.426.804h1.458z" fill="#2B2B45"/>
    </g>
</svg>
